<?xml version="1.0" standalone="no"?><!DOCTYPE svg PUBLIC "-//W3C//DTD SVG 1.1//EN" "http://www.w3.org/Graphics/SVG/1.1/DTD/svg11.dtd"><svg t="1492477588927" class="icon" style="" viewBox="0 0 1024 1024" version="1.1" xmlns="http://www.w3.org/2000/svg" p-id="4931" xmlns:xlink="http://www.w3.org/1999/xlink" width="40" height="40"><defs><style type="text/css"></style></defs><path d="M657.90464 851.1488 657.90464 494.11584l210.2784-34.0992c-33.50016-177.5104-189.27616-311.808-376.5248-311.808-211.6864 0-383.28832 171.60192-383.28832 383.29344 0 211.69664 171.60192 383.27808 383.28832 383.27808 20.5312 0 40.66816-1.664 60.31872-4.76672 15.3856-25.53344 42.98752-46.04416 78.03392-54.8096C639.26784 852.90496 648.62208 851.54816 657.90464 851.1488L657.90464 851.1488zM562.08384 179.49184l-41.0624 179.9168-41.07264 0-29.33248-179.9168C493.6448 157.97248 562.08384 179.49184 562.08384 179.49184L562.08384 179.49184zM491.66336 673.79712c-78.592 0-142.30016-63.70304-142.30016-142.29504 0-78.592 63.70816-142.30016 142.30016-142.30016 78.58688 0 142.29504 63.70816 142.29504 142.30016C633.95328 610.08896 570.25024 673.79712 491.66336 673.79712L491.66336 673.79712zM491.66336 422.99904c-59.84256 0-108.49792 48.66048-108.49792 108.50304 0 59.83744 48.65536 108.48256 108.49792 108.48256 59.83744 0 108.4928-48.65024 108.4928-108.48256C600.15616 471.65952 551.5008 422.99904 491.66336 422.99904L491.66336 422.99904zM491.66336 608.99328c-42.73152 0-77.50144-34.7648-77.50144-77.49632 0-42.73664 34.77504-77.50144 77.50144-77.50144 42.74176 0 77.48608 34.76992 77.48608 77.50144C569.14944 574.22848 534.40512 608.99328 491.66336 608.99328L491.66336 608.99328zM540.73344 976.11776c1.8688 10.3168 5.94944 19.89632 11.83232 28.48768-19.94752 2.56-40.25344 4.02944-60.89216 4.02944-263.10656 0-477.14816-214.05696-477.14816-477.13792 0-263.09632 214.0416-477.14304 477.13792-477.14304 233.52832 0 428.29824 168.72448 469.12512 390.64064l-46.31552 7.52128c-37.20704-199.61856-212.5824-351.232-422.81472-351.232-237.21984 0-430.208 192.98816-430.208 430.208 0 237.21472 192.98816 430.20288 430.208 430.20288 15.88736 0 31.54944-0.93184 47.00672-2.62144C538.79808 964.75136 539.41248 970.43968 540.73344 976.11776L540.73344 976.11776zM1009.47968 470.7328l0 413.68064c0 34.26304-25.5488 61.58848-65.3824 71.65952-43.74016 10.8288-85.97504-7.48544-94.34624-41.00096-8.39168-33.59232 20.25472-69.6064 63.98464-80.54784 19.74784-4.87936 39.20896-3.88608 55.48032 1.85856l0-249.2416-223.64672 40.87296-1.024 310.06208-0.05632 0c-0.18944 29.35296-26.67008 58.17856-64.74752 67.60448-43.21792 10.88-88.49408-9.68704-93.34784-40.46848-8.31488-33.19808 20.01408-68.85376 63.32416-79.69792 19.49184-4.8384 38.528-3.87584 54.53312 1.7408l0-367.0272L1009.47968 470.7328 1009.47968 470.7328zM1009.47968 470.7328" p-id="4932"></path></svg>