<?xml version="1.0" standalone="no"?><!DOCTYPE svg PUBLIC "-//W3C//DTD SVG 1.1//EN" "http://www.w3.org/Graphics/SVG/1.1/DTD/svg11.dtd"><svg t="1493215126202" class="icon" style="" viewBox="0 0 1024 1024" version="1.1" xmlns="http://www.w3.org/2000/svg" p-id="1871" xmlns:xlink="http://www.w3.org/1999/xlink" width="32" height="32"><defs><style type="text/css"></style></defs><path d="M512 1008C238.064 1008 16 785.936 16 512 16 238.064 238.064 16 512 16c273.936 0 496 222.064 496 496C1008 785.936 785.936 1008 512 1008zM512 78C272.304 78 78 272.304 78 512S272.304 946 512 946c239.696 0 434-194.304 434-434S751.696 78 512 78zM720.144 720.144c-11.824 11.824-30.992 11.824-42.816 0L512 554.816 346.656 720.144c-11.824 11.824-30.992 11.824-42.816 0-11.824-11.824-11.824-30.992 0-42.8L469.184 512 303.856 346.656c-11.824-11.824-11.824-30.992 0-42.816 11.824-11.824 30.992-11.824 42.816 0L512 469.184l165.344-165.344c11.824-11.824 30.992-11.824 42.816 0 11.824 11.824 11.824 30.992 0 42.816L554.816 512l165.344 165.344C731.968 689.152 731.968 708.336 720.144 720.144z" p-id="1872" fill="#CBCBCB"></path></svg>