<?xml version="1.0" standalone="no"?><!DOCTYPE svg PUBLIC "-//W3C//DTD SVG 1.1//EN" "http://www.w3.org/Graphics/SVG/1.1/DTD/svg11.dtd"><svg t="1495068278007" class="icon" style="" viewBox="0 0 1024 1024" version="1.1" xmlns="http://www.w3.org/2000/svg" p-id="1140" xmlns:xlink="http://www.w3.org/1999/xlink" width="200" height="200"><defs><style type="text/css"></style></defs><path d="M495.419733 79.829333c9.1136 0.878933 18.244267 1.655467 27.3408 2.6624 68.445867 7.594667 131.464533 30.3104 189.115734 67.985067a429.568 429.568 0 0 1 100.258133 90.871467c36.608 45.508267 63.086933 96.384 79.0784 152.610133 6.8352 24.0384 11.7248 48.469333 13.986133 73.378133 0.3328 3.6608 1.834667 4.9152 5.504 4.8896 21.5808-0.128 43.1616-0.059733 64.7424-0.059733h5.768534c0.571733 2.295467-0.878933 2.978133-1.749334 3.874133-35.584 36.48-71.202133 72.917333-106.752 109.431467-2.321067 2.389333-3.8656 3.694933-6.912 0.6144-36.974933-37.248-74.077867-74.376533-111.138133-111.5392-0.418133-0.418133-0.725333-0.938667-1.237333-1.621333 1.9712-1.288533 3.976533-0.802133 5.853866-0.802134 21.888-0.034133 43.776-0.110933 65.655467 0.042667 4.1728 0.0256 5.512533-0.887467 4.957867-5.4272-7.022933-57.2672-25.6-110.404267-56.669867-159.0528-32.4608-50.833067-74.692267-91.588267-126.967467-121.762133-42.043733-24.2688-87.236267-39.210667-135.5008-44.526934-53.154133-5.853867-105.088-0.187733-155.554133 17.646934a352.580267 352.580267 0 0 0-99.089067 54.0928c-54.135467 41.9584-93.636267 94.958933-118.877866 158.532266-15.3088 38.5536-23.816533 78.6176-25.966934 120.1152-2.875733 55.415467 5.7344 108.9024 26.026667 160.469334a368.6656 368.6656 0 0 0 74.248533 117.700266c44.322133 47.445333 97.3568 81.024 159.547734 99.9168a340.078933 340.078933 0 0 0 119.722666 14.199467c78.0032-4.616533 146.935467-32.520533 207.104-82.2528 8.260267-6.826667 16.2816-13.934933 23.6544-21.725867 2.542933-2.688 4.292267-3.268267 7.304534-0.170666a2407.3472 2407.3472 0 0 0 41.1648 41.284266c2.7648 2.705067 2.338133 4.1984-0.2048 6.528-63.931733 58.624-138.3424 96.315733-224.042667 110.378667-94.8736 15.5648-185.437867 1.160533-270.702933-43.3408-76.347733-39.850667-135.560533-97.826133-177.749334-172.936533-30.2592-53.870933-47.863467-111.709867-53.102933-173.320534-0.477867-5.307733-0.0512-10.7264-1.570133-15.931733v-41.326933c1.143467-5.0944 0.7424-10.333867 0.759466-15.4368 0.1024-27.7504 5.623467-54.562133 12.9536-81.1264 10.24-37.102933 25.617067-72.029867 45.2608-105.028267a418.807467 418.807467 0 0 1 47.3856-64.674133c20.727467-23.2448 43.306667-44.433067 68.437334-62.8224 55.901867-40.9088 117.973333-67.328 186.333866-78.754134 15.3088-2.56 30.813867-2.747733 46.2848-3.140266 1.3312-0.034133 2.747733 0.443733 4.002134-0.443734h41.335466z" p-id="1141" fill="#8a8a8a"></path><path d="M539.554133 593.493333c-44.074667 0-88.149333-0.059733-132.224 0.093867-4.241067 0.017067-5.76-0.802133-5.76-5.435733 0.145067-82.6368-0.0512-165.282133 0.238934-247.918934a90.1376 90.1376 0 0 1 13.038933-46.779733c4.548267-7.534933 10.666667-13.457067 19.310933-16.085333 13.738667-4.181333 26.5216 0.768 33.954134 13.226666 8.9856 15.0784 11.588267 31.837867 11.648 48.9728 0.187733 55.3984 0.068267 110.7968 0.068266 166.1952 0 1.527467 0.1024 3.072-0.008533 4.590934-0.221867 2.978133 1.1264 4.215467 4.0448 4.027733 1.527467-0.093867 3.063467 0 4.590933 0h182.724267c6.7584 0 6.801067 0.008533 6.801067 6.877867 0.017067 22.033067-0.1024 44.074667 0.0768 66.107733 0.034133 4.471467-1.4848 5.717333-5.828267 5.700267-44.228267-0.128-88.456533-0.0768-132.6848-0.0768l0.008533 0.503466z" p-id="1142" fill="#8a8a8a"></path></svg>